<?xml version="1.0" encoding="UTF-8" standalone="no"?>
<svg
   version="1.0"
   width="1279.9438pt"
   height="104.36267pt"
   viewBox="0 0 1279.9438 104.36267"
   preserveAspectRatio="xMidYMid"
   id="svg1548"
   xmlns="http://www.w3.org/2000/svg"
   xmlns:svg="http://www.w3.org/2000/svg">
  <defs
     id="defs1552" />
  <metadata
     id="metadata1526">
Created by potrace 1.15, written by Peter Selinger 2001-2017
</metadata>
  <g
     transform="matrix(0.1,0,0,-0.1,-0.16292753,371.86268)"
     fill="#000000"
     stroke="none"
     id="g1546">
    <path
       d="m 6354,3698 c -93,-66 -129,-208 -84,-334 20,-59 67,-128 109,-159 l 24,-19 53,56 c 129,139 124,364 -11,456 -39,28 -53,27 -91,0 z m 90,-19 c 14,-11 38,-42 54,-67 24,-41 27,-57 27,-132 0,-72 -4,-93 -27,-140 -15,-30 -43,-71 -63,-90 l -35,-34 -35,34 c -20,19 -48,60 -63,90 -23,47 -27,68 -27,140 0,75 3,91 27,132 31,51 71,88 98,88 10,0 29,-9 44,-21 z"
       id="path1528" />
    <path
       d="m 4939,3411 c -113,-22 -229,-116 -282,-229 -30,-62 -32,-75 -32,-172 0,-92 3,-112 26,-160 36,-77 71,-115 137,-147 49,-24 69,-28 142,-28 107,0 164,21 218,79 67,73 79,158 36,245 -36,71 -86,104 -168,109 -49,3 -70,-1 -106,-20 -53,-27 -84,-74 -74,-113 l 7,-26 28,34 c 36,44 108,63 172,46 110,-30 152,-177 74,-265 -49,-57 -100,-78 -188,-78 -67,-1 -81,3 -125,29 -91,57 -141,181 -132,327 14,208 205,360 411,327 127,-21 230,-71 426,-208 207,-145 349,-220 531,-279 269,-88 452,-88 720,0 183,60 325,135 531,279 196,137 299,187 426,208 206,33 397,-119 411,-327 9,-146 -41,-270 -132,-327 -44,-26 -58,-30 -125,-29 -88,0 -139,21 -188,78 -78,88 -36,235 74,265 64,17 136,-2 172,-46 l 28,-34 7,26 c 10,39 -21,86 -74,113 -36,19 -57,23 -106,20 -82,-5 -132,-38 -168,-109 -43,-87 -31,-172 36,-245 54,-58 111,-79 218,-79 140,0 221,51 279,175 23,48 26,68 26,160 0,97 -2,110 -32,172 -40,86 -110,156 -194,196 -176,84 -376,33 -646,-165 -277,-203 -488,-305 -738,-358 -202,-42 -425,-2 -690,124 -135,65 -208,110 -378,234 -226,165 -403,228 -558,198 z"
       id="path1530" />
    <path
       d="m 5801,3369 c -24,-5 -45,-10 -47,-12 -2,-2 20,-20 50,-41 63,-43 125,-108 214,-223 107,-138 219,-196 382,-196 170,0 272,56 399,217 86,110 143,167 211,212 41,27 41,28 18,37 -40,15 -181,20 -242,8 -78,-14 -124,-38 -221,-112 -44,-33 -99,-70 -122,-82 l -43,-21 -42,21 c -24,12 -79,49 -123,82 -44,34 -98,70 -120,81 -77,37 -210,50 -314,29 z m 162,-9 c 87,-14 152,-49 251,-134 49,-43 111,-88 137,-102 l 49,-24 49,24 c 26,14 88,59 137,102 99,85 164,120 251,135 52,8 156,4 176,-8 5,-3 -15,-21 -45,-41 -29,-19 -109,-93 -178,-163 -69,-69 -143,-136 -165,-147 -143,-72 -307,-72 -450,0 -22,11 -96,78 -165,147 -69,70 -149,144 -179,164 -56,37 -56,42 4,50 55,7 70,7 128,-3 z"
       id="path1532" />
    <path
       d="m 4444,3070 c -49,-20 -66,-77 -39,-129 29,-56 125,-58 154,-3 42,79 -33,165 -115,132 z m 66,-48 c 18,-14 21,-25 16,-45 -8,-35 -49,-46 -76,-22 -25,23 -25,40 0,65 25,25 32,25 60,2 z"
       id="path1534" />
    <path
       d="m 8262,3055 c -54,-45 -42,-124 23,-151 62,-26 125,20 125,90 0,36 -39,76 -81,82 -28,5 -41,1 -67,-21 z m 88,-35 c 25,-25 25,-42 0,-65 -27,-24 -68,-13 -76,22 -5,20 -2,31 16,45 28,23 35,23 60,-2 z"
       id="path1536" />
    <path
       d="m 16,3017 c -24,-18 -17,-48 14,-64 20,-10 453,-12 2148,-10 2089,2 2124,2 2138,21 18,25 18,31 -2,50 -14,14 -223,16 -2148,16 -1747,0 -2135,-2 -2150,-13 z"
       id="path1538" />
    <path
       d="m 8486,3014 c -20,-19 -20,-25 -2,-50 14,-19 49,-19 2138,-21 2246,-3 2168,-4 2176,42 10,47 103,45 -2164,45 -1925,0 -2134,-2 -2148,-16 z"
       id="path1540" />
    <path
       d="m 5492,2948 c -52,-19 -142,-93 -142,-116 0,-6 11,-24 24,-39 23,-27 28,-28 113,-27 75,0 107,7 218,42 72,23 155,45 185,48 88,10 91,18 19,52 -137,65 -310,82 -417,40 z m 368,-43 55,-18 -80,-12 c -44,-7 -127,-24 -185,-40 -111,-28 -213,-36 -232,-17 -22,22 39,69 127,99 55,18 243,11 315,-12 z"
       id="path1542" />
    <path
       d="m 7004,2951 c -34,-10 -88,-30 -119,-46 -65,-31 -61,-39 25,-49 30,-3 114,-25 185,-48 111,-35 143,-42 218,-42 85,-1 90,0 113,27 13,15 24,33 24,39 0,24 -90,97 -144,117 -72,27 -212,28 -302,2 z m 293,-50 c 62,-28 102,-66 85,-83 -20,-20 -122,-11 -248,21 -66,17 -149,34 -183,37 -43,5 -58,10 -48,16 77,43 305,48 394,9 z"
       id="path1544" />
  </g>
</svg>
