<?xml version="1.0" encoding="UTF-8" standalone="no"?>
<svg
   version="1.0"
   width="1277.8035pt"
   height="100.45868pt"
   viewBox="0 0 1277.8035 100.45868"
   preserveAspectRatio="xMidYMid"
   id="svg1379"
   xmlns="http://www.w3.org/2000/svg"
   xmlns:svg="http://www.w3.org/2000/svg">
  <defs
     id="defs1383" />
  <metadata
     id="metadata1373">
Created by potrace 1.15, written by Peter Selinger 2001-2017
</metadata>
  <g
     transform="matrix(0.1,0,0,-0.1,-1.0981772,370.63932)"
     fill="#000000"
     stroke="none"
     id="g1377">
    <path
       d="m 5910,3704 c -51,-9 -146,-48 -186,-74 -64,-45 -122,-143 -124,-210 0,-47 21,-102 57,-141 42,-47 89,-53 123,-17 31,34 25,64 -22,108 l -43,39 20,37 c 31,58 87,89 159,89 102,-1 177,-53 225,-155 31,-67 35,-157 8,-208 -41,-76 -170,-136 -292,-136 -90,1 -168,22 -335,90 -277,114 -293,119 -415,119 -129,0 -170,-14 -343,-116 l -103,-62 -97,51 c -140,73 -213,93 -363,99 -157,7 -202,-2 -352,-74 l -117,-56 -153,76 c -83,42 -247,125 -362,184 -318,163 -521,230 -769,254 -255,26 -396,-26 -866,-316 -377,-232 -432,-257 -621,-274 -315,-29 -594,59 -852,269 -96,78 -103,65 -10,-20 244,-223 561,-340 884,-327 194,8 277,40 653,250 240,133 413,219 511,252 164,56 385,41 647,-45 133,-44 295,-120 611,-288 l 189,-100 -124,-60 c -170,-83 -217,-97 -313,-96 -169,3 -337,64 -680,248 -318,171 -406,206 -519,206 -72,0 -143,-30 -204,-85 -58,-52 -75,-104 -70,-213 5,-99 29,-156 90,-208 47,-39 147,-84 205,-90 138,-17 276,67 290,176 7,51 -1,82 -33,119 -31,37 -66,40 -88,9 -22,-31 -21,-35 16,-68 28,-26 30,-32 20,-55 -6,-14 -26,-34 -44,-46 -43,-26 -121,-22 -166,9 -38,28 -82,114 -82,162 0,73 73,140 151,140 68,0 173,-42 429,-171 340,-172 516,-229 699,-229 43,0 102,7 132,16 61,18 217,95 315,155 l 66,40 92,-35 c 185,-70 340,-106 502,-113 166,-8 294,23 519,127 195,90 289,115 383,100 72,-12 70,-11 295,-101 297,-119 438,-146 592,-115 103,21 229,82 299,147 l 56,51 56,-51 c 70,-65 196,-126 299,-147 154,-31 295,-4 592,115 225,90 223,89 295,101 69,11 152,-3 250,-42 68,-27 77,-33 66,-47 -11,-14 -11,-14 3,-3 14,10 36,4 134,-38 189,-81 247,-95 410,-95 176,0 332,31 517,102 l 66,25 59,-35 c 91,-55 233,-123 292,-141 30,-9 89,-16 132,-16 183,0 358,57 699,229 256,129 361,171 429,171 78,0 151,-67 151,-140 0,-48 -44,-134 -82,-162 -45,-31 -123,-35 -166,-9 -18,12 -38,32 -44,46 -10,23 -8,29 20,55 37,33 38,37 16,68 -42,60 -124,-13 -124,-111 0,-82 83,-165 189,-188 76,-16 144,-5 228,36 124,61 173,144 173,289 0,86 -21,138 -75,185 -60,53 -130,81 -201,81 -111,0 -204,-36 -503,-197 -321,-173 -465,-231 -636,-254 -112,-14 -185,2 -345,77 l -114,55 219,116 c 346,182 487,248 623,293 262,85 483,101 647,45 98,-33 271,-119 511,-252 376,-210 459,-242 653,-250 323,-13 640,104 884,327 93,85 86,98 -10,20 -258,-210 -537,-298 -852,-269 -189,17 -244,42 -621,274 -350,216 -504,289 -667,317 -135,23 -394,-17 -608,-92 -135,-48 -244,-99 -525,-246 -140,-73 -287,-147 -326,-164 l -71,-32 -132,66 c -162,80 -208,90 -371,83 -141,-5 -216,-25 -342,-88 l -77,-39 -77,47 c -42,25 -108,60 -148,77 -65,28 -80,31 -181,31 -122,0 -138,-5 -415,-119 -167,-68 -245,-89 -335,-90 -122,0 -251,60 -292,136 -27,51 -23,141 8,208 48,102 123,154 225,155 72,0 128,-31 159,-89 l 20,-37 -43,-39 c -47,-44 -53,-74 -22,-108 34,-36 81,-30 123,17 73,81 73,178 1,282 -85,124 -296,178 -464,120 -105,-37 -215,-112 -263,-181 l -17,-24 -17,24 c -48,69 -159,145 -259,179 -62,20 -169,33 -214,25 z M 4410,3142 c 74,-23 152,-55 182,-76 20,-14 19,-15 -18,-34 -174,-89 -404,-94 -664,-16 -47,14 -88,29 -92,33 -12,11 157,93 220,108 83,18 289,10 372,-15 z m 4256,17 c 54,-9 158,-55 243,-107 l 34,-20 -69,-21 c -278,-82 -536,-61 -714,58 -24,16 106,66 245,95 42,8 204,6 261,-5 z"
       id="path1375" />
  </g>
</svg>
